<?xml version="1.0" encoding="UTF-8"?>
<!-- Created with Inkscape (http://www.inkscape.org/) -->
<svg width="37.813mm" height="12.669mm" version="1.1" viewBox="0 0 37.813 12.669" xmlns="http://www.w3.org/2000/svg">
 <g transform="translate(-90.828 -137.95)">
  <path d="m95.453 137.95c0.26574 0 0.78734 0.27466 1.1591 0.60978 0.37177 0.33512 1.6612 1.0052 2.8649 1.4893l2.1885 0.88005 1.4914-0.46871c1.1298-0.35536 2.4585-0.4755 5.4839-0.49609 4.7864-0.0325 5.2616 0.12581 7.4843 2.4934 2.545 2.7109 5.1156 3.6944 9.6537 3.6944 2.6689 0 2.8624 0.0352 2.8624 0.51987 0 0.82244-0.83309 1.0676-3.6287 1.0676-2.6597 1e-5 -3.9852-0.25676-6.8616-1.3307-1.4281-0.53318-1.7272-0.56598-2.4474-0.26768-0.63689 0.26381-0.82062 0.5031-0.82062 1.0692 0 1.0563-0.45942 1.3014-3.0267 1.6154-2.6481 0.32391-3.0587 0.23481-3.0587-0.66507 0-0.91062-0.30895-1.0266-2.6112-0.97824l-2.019 0.0424-1.4185 1.4676c-0.78039 0.80716-1.6734 1.5705-1.9844 1.696-0.84553 0.34129-1.391 0.30524-1.7399-0.11524-0.25257-0.30432-0.15181-0.49585 0.52245-0.99219 0.45955-0.33829 1.0077-0.94685 1.218-1.3518 0.37387-0.71992 0.36208-0.7447-0.5271-1.1162-0.73254-0.30606-1.4684-0.33321-3.7817-0.13952-1.5797 0.13227-3.3774 0.39149-3.9951 0.57567-0.83952 0.25034-1.1991 0.25866-1.4242 0.0336-0.56414-0.56415-0.01146-1.0602 1.9968-1.7926 1.1033-0.40239 2.0056-0.77561 2.0056-0.82941s-0.23813-0.54218-0.52917-1.0852-0.52917-1.1904-0.52917-1.4387-0.11906-0.52505-0.26458-0.61495c-0.43359-0.26795-0.30041-0.66145 0.22376-0.66145 0.85079 0 1.3665-0.83698 1.1891-1.9301-0.13479-0.83062-0.08548-0.98029 0.32401-0.9803z" fill="#2e292b" stroke-width=".26458"/>
 </g>
</svg>
