<?xml version="1.0" encoding="UTF-8"?>
<!-- Created with Inkscape (http://www.inkscape.org/) -->
<svg width="37.697mm" height="12.501mm" version="1.1" viewBox="0 0 37.697 12.501" xmlns="http://www.w3.org/2000/svg">
 <g transform="translate(-90.87 -138.02)">
  <path d="m100.95 150.15c0.32756-0.20741 1.1842-0.96947 1.9038-1.6935l1.3082-1.3164 2.0814 0.0377c2.3938 0.0434 2.5876 0.11503 2.5876 0.95674 0 0.36289 0.0663 0.50368 0.31343 0.66561 0.28561 0.18713 0.44867 0.19205 1.8364 0.0554 2.9056-0.28613 3.607-0.54792 3.7771-1.4098 0.0511-0.25908 0.12118-0.59232 0.15564-0.74054 0.083-0.35716 0.87889-0.75408 1.512-0.75408 0.28819 0 1.3217 0.27891 2.4433 0.65939 2.6645 0.90385 3.6652 1.0582 6.5145 1.0051 1.9002-0.0354 2.36-0.0789 2.6828-0.25373 0.41878-0.22674 0.63464-0.73572 0.4081-0.96226-0.0874-0.0874-1.0924-0.1658-2.815-0.21954-3.3959-0.10594-4.7164-0.36558-6.5392-1.2858-0.97974-0.49458-1.786-1.1376-3.3732-2.6902-2.0726-2.0276-2.4745-2.154-6.842-2.1525-3.4171 1e-3 -4.569 0.11289-6.1356 0.59511l-1.1581 0.35649-1.4446-0.59383c-1.7261-0.70952-3.1014-1.4097-3.9105-1.9909-0.33056-0.23745-0.70381-0.41034-0.84293-0.39045-0.22638 0.0324-0.25047 0.11999-0.25805 0.93884-5e-3 0.49673-0.0689 1.0467-0.14293 1.2221-0.17433 0.4133-0.59733 0.70456-1.0233 0.70456-0.41307 0-0.55288 0.29004-0.28337 0.58785 0.10832 0.11969 0.27749 0.52683 0.37592 0.90474 0.0984 0.37792 0.27189 0.8605 0.38546 1.0724 0.11356 0.21191 0.29936 0.58584 0.41289 0.83097l0.2064 0.44568-1.7453 0.68248c-2.2365 0.87454-2.8486 1.3793-2.2625 1.8657 0.15763 0.13083 0.40761 0.11297 1.4751-0.10538 3.0549-0.62485 6.6951-0.81024 7.7234-0.39335 0.29564 0.11986 0.5935 0.30665 0.66191 0.41509 0.19811 0.31407-0.35779 1.2126-1.2232 1.9771-0.41745 0.36878-0.759 0.73377-0.759 0.81109 0 0.27892 0.44366 0.53916 0.91916 0.53916 0.32931 0 0.66458-0.11769 1.0743-0.37711z" fill="#ececec" stroke-width=".12042"/>
 </g>
</svg>
