<?xml version="1.0" encoding="UTF-8"?>
<!-- Created with Inkscape (http://www.inkscape.org/) -->
<svg width="27.049mm" height="41.873mm" version="1.1" viewBox="0 0 27.049 41.873" xmlns="http://www.w3.org/2000/svg">
 <g transform="translate(-149.48 -58.547)">
  <path d="m149.77 99.908c-0.37995-0.70995-0.37995-40.132 0-40.842 0.26546-0.49601 0.69239-0.51254 13.24-0.51254s12.974 0.01653 13.24 0.51254c0.37995 0.70995 0.37995 40.132 0 40.842-0.26546 0.49601-0.69239 0.51253-13.24 0.51253s-12.974-0.0165-13.24-0.51253zm25.54-0.17826c0.3771-0.14471 0.41914-2.1751 0.41914-20.243 0-18.067-0.042-20.098-0.41914-20.243-0.54743-0.21007-24.052-0.21007-24.6 0-0.3771 0.14471-0.41914 2.1757-0.41914 20.249 0 15.822 0.0703 20.116 0.33122 20.222 0.47751 0.19268 24.187 0.20675 24.688 0.0146zm-16.867-6.5299c-1.2472-1.6381-1.8676-3.1923-1.9977-5.004-0.10605-1.4774-0.0219-1.985 0.52731-3.1798 0.35944-0.78194 0.98128-1.8092 1.3819-2.2829l0.72836-0.86118h8.6423l0.86064 0.98021c2.6258 2.9906 2.5757 7.155-0.12449 10.348l-0.72836 0.86118h-8.6343zm9.7521-0.26498c2.5799-3.0556 2.5932-7.347 0.0311-10.069l-0.68582-0.72869h-8.1405l-0.69704 0.72869c-0.38338 0.40078-1.0172 1.4286-1.4084 2.284-0.88834 1.9423-0.80005 3.8575 0.27572 5.9804 1.3414 2.6472 1.3833 2.666 5.9346 2.666h3.9632zm-5.7809-0.21996c-0.63125-0.36766-0.5938-1.7035 0.0662-2.3636 1.0951-1.0951 2.3848-0.38362 2.3848 1.3155 0 1.0576-0.30282 1.3418-1.4128 1.3263-0.31599-0.0044-0.7832-0.1296-1.0382-0.27815zm-2.1999-4.2914c-0.0796-0.2074-0.10904-1.2-0.0654-2.2057 0.0705-1.6255 0.13811-1.8286 0.60922-1.8286 0.48572 0 0.52996 0.17665 0.52996 2.1162 0 1.8062-0.0681 2.1293-0.46452 2.2057-0.25548 0.0492-0.52963-0.08024-0.60922-0.28764zm5.2996 0c-0.0796-0.2074-0.10904-1.2-0.0654-2.2057 0.0705-1.6255 0.13812-1.8286 0.60923-1.8286 0.48572 0 0.52995 0.17665 0.52995 2.1162 0 1.8062-0.068 2.1293-0.46451 2.2057-0.25548 0.0492-0.52963-0.08024-0.60922-0.28764zm-7.1095-12.184c-2.6254-3.442-2.6758-7.0941-0.14217-10.293l0.81805-1.0329h8.6449l0.86064 0.98021c2.639 3.0056 2.5892 7.139-0.12449 10.348l-0.72836 0.86118h-8.6702zm9.7068-0.13057c1.1906-1.2478 2.0489-3.4438 2.0452-5.2333-4e-3 -1.8276-0.56589-3.2707-1.839-4.7207l-0.85725-0.97635h-3.9115c-4.5177 0-4.6732 0.06309-5.9794 2.4268-0.65988 1.194-0.78128 1.7056-0.77615 3.2703 6e-3 1.9453 0.47804 3.219 1.8889 5.1009l0.64567 0.86118h8.0882zm-5.8307-0.37216c-0.4329-0.43289-0.42139-1.5877 0.0219-2.1939 0.40854-0.55871 1.5822-0.63406 2.1777-0.1398 0.27844 0.23109 0.38575 0.69139 0.33204 1.4243-0.0776 1.0585-0.10319 1.0846-1.1405 1.1611-0.59588 0.04397-1.2058-0.0664-1.3911-0.25173zm-2.0662-4.2717c-0.0796-0.2074-0.10904-1.2-0.0654-2.2057 0.0705-1.6255 0.13811-1.8286 0.60922-1.8286 0.48572 0 0.52996 0.17665 0.52996 2.1162 0 1.8062-0.0681 2.1293-0.46452 2.2057-0.25548 0.0492-0.52963-0.08024-0.60922-0.28764zm5.2996 0c-0.0796-0.2074-0.10904-1.2-0.0654-2.2057 0.0705-1.6255 0.13812-1.8286 0.60923-1.8286 0.48572 0 0.52995 0.17665 0.52995 2.1162 0 1.8062-0.068 2.1293-0.46451 2.2057-0.25548 0.0492-0.52963-0.08024-0.60922-0.28764z" fill="#959595" stroke-width=".26498"/>
  <g fill="#fff" stroke="#fff">
   <g stroke-width=".16091">
    <path transform="matrix(.26458 0 0 .26458 149.48 58.553)" d="m14.08 158.01c-9.2311-0.17147-11.765-0.44763-12.626-1.376-0.45732-0.49345-0.51723-1.0608-0.72972-6.9105-0.74016-20.376-0.83956-106.26-0.15747-136.05 0.09016-3.9383 0.20186-7.3959 0.24823-7.6835l0.084301-0.52296h2.7624l-0.10843 1.408c-0.35693 4.6349-0.44386 14.215-0.52307 57.647-0.10654 58.414 0.1066 83.693 0.75193 89.179 0.19367 1.6464 0.26007 1.8565 0.62338 1.9718 1.3477 0.42775 51.463 0.70064 75.085 0.40885 8.8501-0.10932 16.597-0.24467 17.216-0.30076 1.0442-0.0947 1.1413-0.13605 1.3515-0.57617 0.37121-0.77726 0.63642-3.4217 0.85617-8.5369 0.2962-6.8948 0.30129-128.16 0.0057-135.03-0.11097-2.5786-0.24753-5.0225-0.3035-5.4308l-0.10175-0.74237h2.8919l0.10538 2.7757c0.058 1.5266 0.19446 7.0841 0.30332 12.35 0.27879 13.485 0.27774 103.18-1e-3 117.06-0.23627 11.754-0.47007 17.608-0.73475 18.398-0.10314 0.30756-0.37221 0.69618-0.59792 0.86359-0.58076 0.43078-2.5152 0.72834-6.1246 0.94211-3.7227 0.22049-69.845 0.34529-80.277 0.15152z"/>
    <path transform="matrix(.26458 0 0 .26458 149.48 58.553)" d="m0.89676 4.4716c0.02182-1.5808 0.23037-2.5342 0.64442-2.9459 0.52041-0.51752 1.8637-0.83456 4.4126-1.0415 3.4607-0.28094 36.846-0.50407 60.181-0.40223 29.909 0.13053 33.441 0.27717 34.6 1.4363 0.36851 0.36851 0.44871 0.75579 0.61033 2.947l0.0623 0.84479h-2.8346l-0.10298-0.60342c-0.21908-1.2838-0.42043-1.8199-0.76939-2.0486-0.75653-0.4957-10.82-0.63165-46.692-0.63079-33.415 7.962e-4 -45.274 0.14099-46.344 0.5479-0.46115 0.17533-0.67944 0.64608-0.84957 1.8321l-0.11796 0.82233-2.8123 0.092985z"/>
    <path transform="matrix(.26458 0 0 .26458 149.48 58.553)" d="m34.246 67.38c-2.4447-3.2602-3.5064-4.9405-4.8031-7.6012-4.2038-8.6263-4.2843-17.216-0.23844-25.433 1.1862-2.4093 2.6331-4.5872 5.1521-7.7549l1.9513-2.4539h32.604l1.9981 2.293c3.2302 3.707 4.5316 5.5802 5.8858 8.4723 1.7061 3.6435 2.4323 6.7255 2.5631 10.877 0.13607 4.3193-0.42211 7.5551-1.9847 11.505-1.5343 3.8786-3.1886 6.5014-6.7747 10.741l-1.6674 1.9712-32.727-0.0038zm35.224 0.05766c3.5335-3.6874 5.5723-7.1059 7.207-12.084 1.1517-3.5072 1.3647-4.9176 1.3608-9.0111-3e-3 -3.1671-0.0496-3.8321-0.37216-5.3101-1.1513-5.2751-2.933-8.4221-8.0491-14.217l-1.6836-1.9069-12.404 0.07621c-12.751 0.07833-14.223 0.14587-16.749 0.76855-3.2112 0.7914-4.8438 2.3122-7.5248 7.0095-1.1908 2.0864-2.462 4.7239-2.8222 5.8555-0.69042 2.1691-0.75584 2.8167-0.75583 7.4824 4e-6 4.0511 0.03694 4.6877 0.36623 6.3122 0.94808 4.6771 2.7546 8.2461 7.1694 14.164l1.9507 2.6148h30.626z"/>
    <path transform="matrix(.26458 0 0 .26458 149.48 58.553)" d="m41.676 49.665c-1.2625-0.57735-1.442-1.6062-1.3091-7.5057 0.16709-7.42 0.46948-8.5283 2.3268-8.5283 0.77469 0 1.2382 0.33479 1.5044 1.0867 0.30177 0.85238 0.30765 12.522 0.0068 13.514-0.41139 1.3563-1.4325 1.9353-2.5288 1.4339z"/>
    <path transform="matrix(.26458 0 0 .26458 149.48 58.553)" d="m61.601 49.648c-0.92483-0.40228-1.065-0.82039-1.1813-3.5229-0.05767-1.3406-0.04374-3.9533 0.03096-5.8061 0.23433-5.8125 0.52138-6.6883 2.1921-6.6883 0.85524 0 1.3944 0.4536 1.6243 1.3665 0.27015 1.0729 0.40052 7.8209 0.20543 10.633-0.19968 2.8786-0.45382 3.6952-1.254 4.0295-0.65745 0.2747-0.96346 0.27242-1.6174-0.01205z"/>
    <path transform="matrix(.26458 0 0 .26458 149.48 58.553)" d="m50.607 65.713c-0.94789-0.1847-1.9085-0.57939-2.2218-0.91284-0.76869-0.81824-1.0721-1.852-1.0722-3.6535-2.34e-4 -2.8421 0.87183-4.6413 2.7086-5.5882 1.1101-0.57229 3.4833-0.71068 4.7938-0.27955 2.2177 0.72957 2.8828 1.7313 2.9976 4.5144 0.08139 1.9743-0.15178 4.1657-0.51876 4.8753-0.3991 0.77178-1.2819 1.0109-3.9517 1.0706-1.2833 0.02869-2.5142 0.01689-2.7355-0.02623z"/>
    <path transform="matrix(.26458 0 0 .26458 149.48 58.553)" d="m34.822 132.07c-3.9816-5.1924-6.0778-9.0862-7.3085-13.576-0.91987-3.3561-1.1185-4.9914-1.1215-9.2327-3e-3 -4.3417 0.0746-4.7559 1.528-8.1509 1.6516-3.8578 4.0532-7.7521 6.7576-10.957l1.6631-1.9712h32.55l2.1416 2.4765c2.7543 3.1851 3.9411 4.8532 5.2216 7.3391 1.2531 2.4328 2.0576 4.6949 2.6293 7.3925 0.37964 1.7914 0.42914 2.3861 0.43609 5.239 0.0084 3.4722-0.11103 4.4662-0.89943 7.4824-1.3977 5.3473-3.5846 9.0923-9.002 15.416l-0.57863 0.6754h-32.382zm35.094-1.0393c4.828-5.7549 7.1152-10.677 7.9851-17.184 0.51751-3.8712 0.03392-8.7442-1.2314-12.408-0.71831-2.0801-2.2524-5.077-3.4503-6.7402-0.57368-0.79651-1.9241-2.4076-3.0009-3.5803l-1.9578-2.1321h-30.824l-1.7521 1.8923c-3.9152 4.2284-6.9853 10.046-8.1083 15.366-0.50141 2.375-0.50139 6.0946 5.6e-5 8.6369 0.65725 3.3322 1.7545 6.1535 4.1508 10.673 2.414 4.5528 3.7135 5.912 6.4897 6.7875 1.1219 0.35383 3.1625 0.67109 5.0687 0.78805 0.44251 0.0272 6.1991 0.0624 12.792 0.0783l11.988 0.0289z"/>
    <path transform="matrix(.26458 0 0 .26458 149.48 58.553)" d="m41.335 113.62c-0.27607-0.16834-0.59244-0.54822-0.70305-0.84418-0.2905-0.77729-0.39526-6.2847-0.18193-9.5644 0.27997-4.3042 0.52343-5.1275 1.6082-5.4386 0.64634-0.18537 1.6349 0.09375 1.9113 0.53966 0.38027 0.61348 0.51614 2.5066 0.51436 7.1669-0.0024 6.2785-0.22817 7.8155-1.214 8.2646-0.59549 0.27133-1.3676 0.22182-1.9348-0.12407z"/>
    <path transform="matrix(.26458 0 0 .26458 149.48 58.553)" d="m61.564 113.72c-0.88232-0.45344-1.0269-0.89031-1.1423-3.4514-0.12009-2.6659 0.07213-8.6986 0.32825-10.302 0.09212-0.57663 0.272-1.2505 0.39974-1.4975 0.2779-0.5374 1.1571-0.87244 1.9158-0.7301 1.3055 0.24491 1.4511 1.0211 1.4508 7.7366-1.93e-4 6.0378-0.13468 7.2485-0.889 8.0028-0.49526 0.49526-1.3703 0.59768-2.0634 0.24151z"/>
    <path transform="matrix(.26458 0 0 .26458 149.48 58.553)" d="m50.783 129.76c-0.47826-0.1286-1.2369-0.43158-1.6858-0.67329-1.976-1.0639-2.438-4.3358-1.0277-7.2782 0.48582-1.0136 2.022-2.5039 3.0806-2.9885 2.4901-1.14 4.6937-0.33038 5.9531 2.1872 0.76162 1.5224 0.95902 2.6044 0.86467 4.7394-0.1134 2.5658-0.6718 3.5474-2.2963 4.0362-0.99351 0.299-3.7395 0.28619-4.8886-0.0228z"/>
   </g>
   <path transform="matrix(.26458 0 0 .26458 149.48 58.553)" d="m2.6196 5.3501c0.62725-0.021223 1.1411-0.037637 1.1418-0.036477 7.463e-4 0.00116 5.36e-5 0.018911-0.00154 0.039445l-0.0029 0.037335-2.2778-0.0017162z" stroke-width=".0071114"/>
   <path transform="matrix(.26458 0 0 .26458 149.48 58.553)" d="m0.72978 5.97c-0.002118-0.038516 0.074414-1.5448 0.080396-1.5823 0.003046-0.019103-2.1934e-4 0.3122-0.007411 0.75203-0.004053 0.24784-0.003424 0.27201 0.007074 0.27201 0.006337 0 0.011522 0.00379 0.011522 0.00843 0 0.00906-0.083953 0.53561-0.088229 0.55337-0.001551 0.00644-0.002879 0.00503-0.003351-0.00356z" stroke-width=".0071114"/>
   <path transform="matrix(.26458 0 0 .26458 149.48 58.553)" d="m98.456 5.2038c-0.01184-0.10271-0.02074-0.18752-0.01978-0.18848 0.0016-0.00157 0.06436 0.36252 0.06406 0.37145-6.9e-5 0.00207-0.0052 0.00377-0.01144 0.00377-0.01114-3.1e-6 -0.01164-0.00282-0.03283-0.18674z" stroke-width=".0050285"/>
   <path d="m159.33 95.018c-1.2204-0.22285-1.7187-0.56558-2.3931-1.646-0.60285-0.96581-1.3973-2.669-1.6386-3.5131-0.29499-1.0317-0.29898-2.7318-9e-3 -3.7372 0.44503-1.542 1.39-3.1677 2.5483-4.384l0.63885-0.67086h10.202l0.7172 0.75953c0.91809 0.97226 1.1668 1.3158 1.6639 2.2988 0.69077 1.3659 0.823 1.9804 0.81776 3.8005-4e-3 1.3147-0.0365 1.6797-0.20467 2.2817-0.40274 1.4417-1.1345 2.7311-2.4015 4.2318l-0.60238 0.71349-4.3465-9e-3c-3.1039-6e-3 -4.5312-0.042-4.9926-0.12627z" stroke-width=".09218"/>
  </g>
 </g>
</svg>
